<svg xmlns="http://www.w3.org/2000/svg" viewBox="0 0 800 600" width="800" height="600">
  <!-- Background -->
  <rect width="800" height="600" fill="#F1F8E9" rx="20" ry="20" />
  
  <!-- Café Interior -->
  <!-- Floor -->
  <rect x="50" y="400" width="700" height="150" fill="#D7CCC8" />
  
  <!-- Wall -->
  <rect x="50" y="100" width="700" height="300" fill="#DCEDC8" />
  
  <!-- Window -->
  <rect x="100" y="150" width="200" height="200" fill="#B3E5FC" rx="10" ry="10" />
  <line x1="200" y1="150" x2="200" y2="350" stroke="#FFFFFF" stroke-width="5" />
  <line x1="100" y1="250" x2="300" y2="250" stroke="#FFFFFF" stroke-width="5" />
  
  <!-- Counter -->
  <rect x="400" y="250" width="300" height="150" fill="#A1887F" />
  <rect x="400" y="240" width="300" height="10" fill="#8D6E63" />
  
  <!-- Plants -->
  <circle cx="350" cy="380" r="30" fill="#4CAF50" />
  <path d="M330,360 Q350,330 370,360" stroke="#2E7D32" stroke-width="3" fill="none" />
  <path d="M340,350 Q350,320 360,350" stroke="#2E7D32" stroke-width="3" fill="none" />
  <rect x="335" y="380" width="30" height="40" fill="#795548" />
  
  <!-- Coffee Machine -->
  <rect x="500" y="180" width="100" height="60" fill="#616161" rx="5" ry="5" />
  <rect x="520" y="160" width="60" height="20" fill="#424242" rx="5" ry="5" />
  <circle cx="550" cy="210" r="10" fill="#9E9E9E" />
  <rect x="540" y="240" width="20" height="10" fill="#9E9E9E" />
  
  <!-- Coffee Cups on Counter -->
  <circle cx="450" cy="230" r="15" fill="#4CAF50" />
  <path d="M435,230 L465,230" stroke="#2E7D32" stroke-width="2" />
  
  <circle cx="600" cy="230" r="15" fill="#8BC34A" />
  <path d="M585,230 L615,230" stroke="#2E7D32" stroke-width="2" />
  
  <!-- Tables -->
  <circle cx="150" cy="450" r="40" fill="#A1887F" />
  <circle cx="150" cy="450" r="35" fill="#BCAAA4" />
  
  <circle cx="300" cy="450" r="40" fill="#A1887F" />
  <circle cx="300" cy="450" r="35" fill="#BCAAA4" />
  
  <!-- Chairs -->
  <rect x="120" y="500" width="60" height="10" fill="#5D4037" rx="2" ry="2" />
  <rect x="130" y="510" width="10" height="30" fill="#5D4037" />
  <rect x="160" y="510" width="10" height="30" fill="#5D4037" />
  
  <rect x="270" y="500" width="60" height="10" fill="#5D4037" rx="2" ry="2" />
  <rect x="280" y="510" width="10" height="30" fill="#5D4037" />
  <rect x="310" y="510" width="10" height="30" fill="#5D4037" />
  
  <!-- People Silhouettes -->
  <circle cx="150" cy="420" r="15" fill="#607D8B" />
  <rect x="140" y="435" width="20" height="25" fill="#607D8B" rx="5" ry="5" />
  
  <circle cx="300" cy="420" r="15" fill="#795548" />
  <rect x="290" y="435" width="20" height="25" fill="#795548" rx="5" ry="5" />
  
  <!-- Barista -->
  <circle cx="550" cy="300" r="15" fill="#4CAF50" />
  <rect x="540" y="315" width="20" height="25" fill="#4CAF50" rx="5" ry="5" />
  
  <!-- Hanging Lights -->
  <line x1="150" y1="100" x2="150" y2="150" stroke="#9E9E9E" stroke-width="2" />
  <circle cx="150" cy="150" r="10" fill="#FFEB3B" opacity="0.8" />
  
  <line x1="300" y1="100" x2="300" y2="150" stroke="#9E9E9E" stroke-width="2" />
  <circle cx="300" cy="150" r="10" fill="#FFEB3B" opacity="0.8" />
  
  <line x1="550" y1="100" x2="550" y2="150" stroke="#9E9E9E" stroke-width="2" />
  <circle cx="550" cy="150" r="10" fill="#FFEB3B" opacity="0.8" />
  
  <!-- Menu Board -->
  <rect x="650" y="150" width="80" height="60" fill="#212121" />
  <line x1="660" y1="170" x2="720" y2="170" stroke="#FFFFFF" stroke-width="2" />
  <line x1="660" y1="190" x2="720" y2="190" stroke="#FFFFFF" stroke-width="2" />
</svg>